<?xml version="1.0" encoding="UTF-8"?>
<svg xmlns="http://www.w3.org/2000/svg" xmlns:xlink="http://www.w3.org/1999/xlink" width="360.36pt" height="119.79pt" viewBox="0 0 360.36 119.79" version="1.1">
<defs>
<clipPath id="clip1">
  <path d="M 352 97 L 360.359375 97 L 360.359375 110 L 352 110 Z M 352 97 "/>
</clipPath>
<clipPath id="clip2">
  <path d="M 267 3 L 360.359375 3 L 360.359375 99 L 267 99 Z M 267 3 "/>
</clipPath>
<clipPath id="clip3">
  <path d="M 0 0 L 120 0 L 120 119.789063 L 0 119.789063 Z M 0 0 "/>
</clipPath>
</defs>
<g id="surface1">
<path style=" stroke:none;fill-rule:evenodd;fill:rgb(61.199951%,17.599487%,25.898743%);fill-opacity:1;" d="M 132.753906 97.976563 L 134.628906 97.976563 L 134.628906 105.304688 C 134.628906 106.125 134.699219 106.726563 134.84375 107.101563 C 135.066406 107.773438 135.554688 108.105469 136.304688 108.105469 C 137.050781 108.105469 137.535156 107.773438 137.757813 107.101563 C 137.902344 106.726563 137.976563 106.125 137.976563 105.304688 L 137.976563 97.976563 L 139.847656 97.976563 L 139.847656 105.304688 C 139.847656 106.574219 139.703125 107.5625 139.410156 108.265625 C 138.867188 109.5625 137.832031 110.210938 136.304688 110.210938 C 134.777344 110.210938 133.738281 109.5625 133.191406 108.265625 C 132.898438 107.5625 132.753906 106.574219 132.753906 105.304688 "/>
<path style=" stroke:none;fill-rule:evenodd;fill:rgb(61.199951%,17.599487%,25.898743%);fill-opacity:1;" d="M 141.886719 97.976563 L 143.820313 97.976563 L 147.335938 106.300781 L 147.335938 97.976563 L 149.054688 97.976563 L 149.054688 109.902344 L 147.210938 109.902344 L 143.605469 101.429688 L 143.605469 109.902344 L 141.886719 109.902344 "/>
<path style=" stroke:none;fill-rule:evenodd;fill:rgb(61.199951%,17.599487%,25.898743%);fill-opacity:1;" d="M 150.9375 109.902344 L 152.769531 109.902344 L 152.769531 97.976563 L 150.9375 97.976563 Z M 150.9375 109.902344 "/>
<path style=" stroke:none;fill-rule:evenodd;fill:rgb(61.199951%,17.599487%,25.898743%);fill-opacity:1;" d="M 159.960938 97.976563 L 161.878906 97.976563 L 158.867188 109.902344 L 157.125 109.902344 L 154.144531 97.976563 L 156.113281 97.976563 L 158.027344 107.027344 "/>
<path style=" stroke:none;fill-rule:evenodd;fill:rgb(61.199951%,17.599487%,25.898743%);fill-opacity:1;" d="M 169.808594 100.085938 L 165.136719 100.085938 L 165.136719 102.621094 L 169.425781 102.621094 L 169.425781 104.691406 L 165.136719 104.691406 L 165.136719 107.757813 L 170.023438 107.757813 L 170.023438 109.902344 L 163.335938 109.902344 L 163.335938 97.976563 L 169.808594 97.976563 "/>
<path style=" stroke:none;fill-rule:evenodd;fill:rgb(61.199951%,17.599487%,25.898743%);fill-opacity:1;" d="M 173.613281 100.046875 L 173.613281 103.25 L 175.699219 103.25 C 176.117188 103.25 176.429688 103.1875 176.636719 103.058594 C 177.003906 102.828125 177.1875 102.382813 177.1875 101.714844 C 177.1875 100.992188 177.007813 100.503906 176.652344 100.257813 C 176.453125 100.117188 176.15625 100.046875 175.757813 100.046875 Z M 177.5625 98.28125 C 177.898438 98.472656 178.183594 98.75 178.414063 99.117188 C 178.605469 99.417969 178.757813 99.753906 178.867188 100.121094 C 178.980469 100.484375 179.035156 100.902344 179.035156 101.375 C 179.035156 101.941406 178.929688 102.496094 178.71875 103.050781 C 178.507813 103.59375 178.160156 103.976563 177.671875 104.207031 C 178.078125 104.425781 178.367188 104.742188 178.53125 105.152344 C 178.703125 105.558594 178.789063 106.175781 178.789063 107.011719 L 178.789063 107.8125 C 178.789063 108.359375 178.808594 108.726563 178.839844 108.921875 C 178.886719 109.230469 178.996094 109.457031 179.175781 109.601563 L 179.175781 109.902344 L 177.144531 109.902344 C 177.089844 109.636719 177.050781 109.425781 177.027344 109.261719 C 176.976563 108.929688 176.949219 108.585938 176.945313 108.234375 L 176.9375 107.125 C 176.925781 106.363281 176.824219 105.859375 176.621094 105.605469 C 176.429688 105.351563 176.058594 105.226563 175.515625 105.226563 L 173.613281 105.226563 L 173.613281 109.902344 L 171.8125 109.902344 L 171.8125 97.976563 L 176.140625 97.976563 C 176.757813 97.992188 177.234375 98.09375 177.5625 98.28125 "/>
<path style=" stroke:none;fill-rule:evenodd;fill:rgb(61.199951%,17.599487%,25.898743%);fill-opacity:1;" d="M 182.269531 106.21875 C 182.324219 106.765625 182.433594 107.171875 182.597656 107.441406 C 182.894531 107.933594 183.40625 108.179688 184.136719 108.179688 C 184.570313 108.179688 184.921875 108.113281 185.195313 107.984375 C 185.710938 107.734375 185.964844 107.273438 185.964844 106.601563 C 185.964844 106.207031 185.839844 105.902344 185.582031 105.6875 C 185.328125 105.476563 184.925781 105.289063 184.378906 105.128906 L 183.445313 104.84375 C 182.527344 104.5625 181.894531 104.261719 181.542969 103.929688 C 180.949219 103.382813 180.652344 102.519531 180.652344 101.347656 C 180.652344 100.28125 180.9375 99.394531 181.511719 98.6875 C 182.089844 97.980469 182.933594 97.628906 184.046875 97.628906 C 184.972656 97.628906 185.769531 97.960938 186.421875 98.628906 C 187.082031 99.292969 187.425781 100.257813 187.457031 101.527344 L 185.683594 101.527344 C 185.652344 100.808594 185.421875 100.300781 184.992188 99.996094 C 184.703125 99.796875 184.347656 99.699219 183.917969 99.695313 C 183.441406 99.695313 183.066406 99.828125 182.78125 100.085938 C 182.496094 100.34375 182.359375 100.707031 182.359375 101.171875 C 182.359375 101.597656 182.496094 101.917969 182.777344 102.125 C 182.953125 102.265625 183.339844 102.433594 183.925781 102.621094 L 185.445313 103.113281 C 186.109375 103.328125 186.613281 103.617188 186.953125 103.976563 C 187.480469 104.539063 187.746094 105.351563 187.746094 106.414063 C 187.746094 107.503906 187.433594 108.410156 186.816406 109.132813 C 186.203125 109.851563 185.332031 110.210938 184.207031 110.210938 C 183.058594 110.210938 182.152344 109.855469 181.492188 109.148438 C 180.835938 108.4375 180.507813 107.460938 180.507813 106.21875 "/>
<path style=" stroke:none;fill-rule:evenodd;fill:rgb(61.199951%,17.599487%,25.898743%);fill-opacity:1;" d="M 189.277344 109.902344 L 191.109375 109.902344 L 191.109375 97.976563 L 189.277344 97.976563 Z M 189.277344 109.902344 "/>
<path style=" stroke:none;fill-rule:evenodd;fill:rgb(61.199951%,17.599487%,25.898743%);fill-opacity:1;" d="M 199.546875 97.976563 L 199.546875 100.085938 L 196.90625 100.085938 L 196.90625 109.902344 L 195.050781 109.902344 L 195.050781 100.085938 L 192.398438 100.085938 L 192.398438 97.976563 "/>
<path style=" stroke:none;fill-rule:evenodd;fill:rgb(61.199951%,17.599487%,25.898743%);fill-opacity:1;" d="M 200.789063 109.902344 L 202.621094 109.902344 L 202.621094 97.976563 L 200.789063 97.976563 Z M 200.789063 109.902344 "/>
<path style=" stroke:none;fill-rule:evenodd;fill:rgb(61.199951%,17.599487%,25.898743%);fill-opacity:1;" d="M 218.546875 97.976563 L 218.546875 100.085938 L 215.90625 100.085938 L 215.90625 109.902344 L 214.054688 109.902344 L 214.054688 100.085938 L 211.402344 100.085938 L 211.402344 97.976563 "/>
<path style=" stroke:none;fill-rule:evenodd;fill:rgb(61.199951%,17.599487%,25.898743%);fill-opacity:1;" d="M 226.460938 100.085938 L 221.789063 100.085938 L 221.789063 102.621094 L 226.074219 102.621094 L 226.074219 104.691406 L 221.789063 104.691406 L 221.789063 107.757813 L 226.675781 107.757813 L 226.675781 109.902344 L 219.988281 109.902344 L 219.988281 97.976563 L 226.460938 97.976563 "/>
<path style=" stroke:none;fill-rule:evenodd;fill:rgb(61.199951%,17.599487%,25.898743%);fill-opacity:1;" d="M 228.453125 97.976563 L 230.265625 97.976563 L 230.265625 102.886719 L 233.671875 97.976563 L 236.054688 97.976563 L 232.4375 102.886719 L 236.238281 109.902344 L 233.867188 109.902344 L 231.144531 104.691406 L 230.265625 105.914063 L 230.265625 109.902344 L 228.453125 109.902344 "/>
<path style=" stroke:none;fill-rule:evenodd;fill:rgb(61.199951%,17.599487%,25.898743%);fill-opacity:1;" d="M 237.554688 97.976563 L 239.488281 97.976563 L 243.003906 106.300781 L 243.003906 97.976563 L 244.722656 97.976563 L 244.722656 109.902344 L 242.878906 109.902344 L 239.273438 101.429688 L 239.273438 109.902344 L 237.554688 109.902344 "/>
<path style=" stroke:none;fill-rule:evenodd;fill:rgb(61.199951%,17.599487%,25.898743%);fill-opacity:1;" d="M 252.386719 107.027344 C 252.816406 106.300781 253.035156 105.265625 253.035156 103.921875 C 253.035156 102.585938 252.816406 101.550781 252.386719 100.824219 C 251.960938 100.089844 251.382813 99.722656 250.652344 99.722656 C 249.921875 99.722656 249.339844 100.085938 248.902344 100.8125 C 248.46875 101.542969 248.25 102.578125 248.25 103.921875 C 248.25 105.265625 248.46875 106.300781 248.902344 107.027344 C 249.339844 107.757813 249.921875 108.121094 250.652344 108.121094 C 251.382813 108.121094 251.960938 107.757813 252.386719 107.027344 M 253.542969 108.84375 C 252.875 109.769531 251.910156 110.234375 250.652344 110.234375 C 249.390625 110.234375 248.425781 109.769531 247.761719 108.84375 C 246.863281 107.703125 246.417969 106.0625 246.417969 103.921875 C 246.417969 101.734375 246.863281 100.097656 247.761719 99.003906 C 248.425781 98.074219 249.390625 97.609375 250.652344 97.609375 C 251.910156 97.609375 252.875 98.074219 253.542969 99.003906 C 254.433594 100.097656 254.875 101.734375 254.878906 103.921875 C 254.878906 106.0625 254.433594 107.703125 253.542969 108.84375 "/>
<path style=" stroke:none;fill-rule:evenodd;fill:rgb(61.199951%,17.599487%,25.898743%);fill-opacity:1;" d="M 256.59375 97.976563 L 258.4375 97.976563 L 258.4375 107.757813 L 262.808594 107.757813 L 262.808594 109.902344 L 256.59375 109.902344 "/>
<path style=" stroke:none;fill-rule:evenodd;fill:rgb(61.199951%,17.599487%,25.898743%);fill-opacity:1;" d="M 270.03125 107.027344 C 270.460938 106.300781 270.679688 105.265625 270.679688 103.921875 C 270.679688 102.585938 270.460938 101.550781 270.03125 100.824219 C 269.601563 100.089844 269.027344 99.722656 268.296875 99.722656 C 267.566406 99.722656 266.980469 100.085938 266.546875 100.8125 C 266.109375 101.542969 265.894531 102.578125 265.894531 103.921875 C 265.894531 105.265625 266.109375 106.300781 266.546875 107.027344 C 266.980469 107.757813 267.566406 108.121094 268.296875 108.121094 C 269.027344 108.121094 269.601563 107.757813 270.03125 107.027344 M 271.1875 108.84375 C 270.519531 109.769531 269.554688 110.234375 268.296875 110.234375 C 267.03125 110.234375 266.070313 109.769531 265.402344 108.84375 C 264.507813 107.703125 264.0625 106.0625 264.0625 103.921875 C 264.0625 101.734375 264.507813 100.097656 265.402344 99.003906 C 266.070313 98.074219 267.03125 97.609375 268.296875 97.609375 C 269.554688 97.609375 270.519531 98.074219 271.1875 99.003906 C 272.074219 100.097656 272.523438 101.734375 272.523438 103.921875 C 272.523438 106.0625 272.074219 107.703125 271.1875 108.84375 "/>
<path style=" stroke:none;fill-rule:evenodd;fill:rgb(61.199951%,17.599487%,25.898743%);fill-opacity:1;" d="M 280.167969 101.695313 C 280.027344 100.882813 279.6875 100.3125 279.144531 99.988281 C 278.84375 99.8125 278.503906 99.722656 278.136719 99.722656 C 277.421875 99.722656 276.839844 100.085938 276.378906 100.8125 C 275.925781 101.539063 275.695313 102.628906 275.695313 104.085938 C 275.695313 105.550781 275.945313 106.589844 276.441406 107.199219 C 276.933594 107.808594 277.496094 108.113281 278.128906 108.113281 C 278.746094 108.113281 279.253906 107.875 279.648438 107.394531 C 280.042969 106.90625 280.285156 106.273438 280.378906 105.492188 L 278.339844 105.492188 L 278.339844 103.5 L 282.011719 103.5 L 282.011719 109.902344 L 280.792969 109.902344 L 280.605469 108.414063 C 280.25 108.976563 279.933594 109.378906 279.648438 109.609375 C 279.160156 110.015625 278.5625 110.21875 277.855469 110.21875 C 276.683594 110.21875 275.726563 109.671875 274.980469 108.574219 C 274.199219 107.472656 273.8125 105.96875 273.8125 104.0625 C 273.8125 102.128906 274.203125 100.582031 274.992188 99.414063 C 275.777344 98.25 276.816406 97.667969 278.109375 97.667969 C 279.230469 97.667969 280.132813 98.054688 280.808594 98.824219 C 281.492188 99.589844 281.882813 100.550781 281.984375 101.695313 "/>
<path style=" stroke:none;fill-rule:evenodd;fill:rgb(61.199951%,17.599487%,25.898743%);fill-opacity:1;" d="M 283.9375 109.902344 L 285.769531 109.902344 L 285.769531 97.976563 L 283.9375 97.976563 Z M 283.9375 109.902344 "/>
<path style=" stroke:none;fill-rule:evenodd;fill:rgb(61.199951%,17.599487%,25.898743%);fill-opacity:1;" d="M 301.136719 97.976563 L 303.789063 97.976563 L 303.789063 109.902344 L 302.070313 109.902344 L 302.070313 101.835938 C 302.070313 101.601563 302.070313 101.277344 302.074219 100.863281 C 302.078125 100.441406 302.082031 100.121094 302.082031 99.894531 L 300.410156 109.902344 L 298.621094 109.902344 L 296.964844 99.894531 C 296.964844 100.121094 296.964844 100.441406 296.96875 100.863281 C 296.972656 101.277344 296.976563 101.601563 296.976563 101.835938 L 296.976563 109.902344 L 295.257813 109.902344 L 295.257813 97.976563 L 297.941406 97.976563 L 299.542969 107.351563 "/>
<path style=" stroke:none;fill-rule:evenodd;fill:rgb(61.199951%,17.599487%,25.898743%);fill-opacity:1;" d="M 308.222656 105.394531 L 310.460938 105.394531 L 309.359375 100.699219 Z M 308.335938 97.976563 L 310.417969 97.976563 L 313.542969 109.902344 L 311.542969 109.902344 L 310.976563 107.449219 L 307.722656 107.449219 L 307.113281 109.902344 L 305.1875 109.902344 "/>
<path style=" stroke:none;fill-rule:evenodd;fill:rgb(61.199951%,17.599487%,25.898743%);fill-opacity:1;" d="M 314.972656 97.976563 L 316.816406 97.976563 L 316.816406 107.757813 L 321.1875 107.757813 L 321.1875 109.902344 L 314.972656 109.902344 "/>
<path style=" stroke:none;fill-rule:evenodd;fill:rgb(61.199951%,17.599487%,25.898743%);fill-opacity:1;" d="M 325.183594 105.394531 L 327.421875 105.394531 L 326.320313 100.699219 Z M 325.296875 97.976563 L 327.382813 97.976563 L 330.503906 109.902344 L 328.507813 109.902344 L 327.9375 107.449219 L 324.6875 107.449219 L 324.074219 109.902344 L 322.148438 109.902344 "/>
<path style=" stroke:none;fill-rule:evenodd;fill:rgb(61.199951%,17.599487%,25.898743%);fill-opacity:1;" d="M 336.96875 97.976563 L 339.058594 97.976563 L 336.105469 105.421875 L 336.105469 109.902344 L 334.261719 109.902344 L 334.261719 105.421875 L 331.210938 97.976563 L 333.382813 97.976563 L 335.214844 103.167969 "/>
<path style=" stroke:none;fill-rule:evenodd;fill:rgb(61.199951%,17.599487%,25.898743%);fill-opacity:1;" d="M 341.753906 106.21875 C 341.8125 106.765625 341.921875 107.171875 342.085938 107.441406 C 342.382813 107.933594 342.894531 108.179688 343.621094 108.179688 C 344.058594 108.179688 344.410156 108.113281 344.683594 107.984375 C 345.195313 107.734375 345.453125 107.273438 345.453125 106.601563 C 345.453125 106.207031 345.324219 105.902344 345.070313 105.6875 C 344.816406 105.476563 344.414063 105.289063 343.867188 105.128906 L 342.933594 104.84375 C 342.015625 104.5625 341.382813 104.261719 341.03125 103.929688 C 340.4375 103.382813 340.140625 102.519531 340.140625 101.347656 C 340.140625 100.28125 340.425781 99.394531 341 98.6875 C 341.574219 97.980469 342.417969 97.628906 343.53125 97.628906 C 344.464844 97.628906 345.253906 97.960938 345.90625 98.628906 C 346.566406 99.292969 346.910156 100.257813 346.945313 101.527344 L 345.171875 101.527344 C 345.140625 100.808594 344.90625 100.300781 344.480469 99.996094 C 344.191406 99.796875 343.835938 99.699219 343.40625 99.695313 C 342.933594 99.695313 342.554688 99.828125 342.269531 100.085938 C 341.984375 100.34375 341.84375 100.707031 341.84375 101.171875 C 341.84375 101.597656 341.984375 101.917969 342.261719 102.125 C 342.441406 102.265625 342.824219 102.433594 343.414063 102.621094 L 344.933594 103.113281 C 345.601563 103.328125 346.101563 103.617188 346.441406 103.976563 C 346.96875 104.539063 347.234375 105.351563 347.234375 106.414063 C 347.234375 107.503906 346.921875 108.410156 346.304688 109.132813 C 345.691406 109.851563 344.820313 110.210938 343.695313 110.210938 C 342.542969 110.210938 341.640625 109.855469 340.984375 109.148438 C 340.324219 108.4375 339.996094 107.460938 339.996094 106.21875 "/>
<path style=" stroke:none;fill-rule:evenodd;fill:rgb(61.199951%,17.599487%,25.898743%);fill-opacity:1;" d="M 348.761719 109.902344 L 350.59375 109.902344 L 350.59375 97.976563 L 348.761719 97.976563 Z M 348.761719 109.902344 "/>
<g clip-path="url(#clip1)" clip-rule="nonzero">
<path style=" stroke:none;fill-rule:evenodd;fill:rgb(61.199951%,17.599487%,25.898743%);fill-opacity:1;" d="M 355.03125 105.394531 L 357.273438 105.394531 L 356.171875 100.699219 Z M 355.148438 97.976563 L 357.230469 97.976563 L 360.355469 109.902344 L 358.359375 109.902344 L 357.789063 107.449219 L 354.535156 107.449219 L 353.925781 109.902344 L 352 109.902344 "/>
</g>
<path style=" stroke:none;fill-rule:evenodd;fill:rgb(61.199951%,17.599487%,25.898743%);fill-opacity:1;" d="M 358.355469 88.863281 L 329.066406 88.863281 L 329.066406 85.070313 C 330.125 85.035156 331.484375 84.914063 333.132813 84.699219 C 334.816406 84.484375 335.96875 84.183594 336.589844 83.789063 C 337.554688 83.113281 338.253906 82.351563 338.691406 81.496094 C 339.15625 80.605469 339.390625 79.503906 339.390625 78.183594 L 339.390625 23.082031 L 338.691406 23.082031 L 316.085938 87.636719 L 313.75 87.636719 L 292.214844 21.75 L 291.609375 21.75 L 291.609375 66.972656 C 291.609375 71.351563 291.84375 74.679688 292.308594 76.957031 C 292.808594 79.234375 293.554688 80.871094 294.550781 81.867188 C 295.234375 82.613281 296.652344 83.328125 298.800781 84.003906 C 300.949219 84.683594 302.351563 85.035156 303.003906 85.070313 L 303.003906 88.863281 L 276.242188 88.863281 L 276.242188 85.070313 C 277.644531 84.929688 279.105469 84.664063 280.632813 84.269531 C 282.1875 83.882813 283.386719 83.292969 284.230469 82.507813 C 285.316406 81.515625 286.066406 79.984375 286.46875 77.917969 C 286.875 75.851563 287.078125 72.402344 287.078125 67.558594 L 287.078125 28.796875 C 287.078125 26.554688 286.84375 24.722656 286.378906 23.300781 C 285.910156 21.875 285.238281 20.71875 284.367188 19.828125 C 283.402344 18.867188 282.21875 18.15625 280.820313 17.691406 C 279.417969 17.230469 278.03125 16.964844 276.660156 16.890625 L 276.660156 13.101563 L 299.269531 13.101563 L 318.230469 69.910156 L 334.441406 22.390625 C 335.03125 20.644531 335.527344 18.832031 335.933594 16.945313 C 336.371094 15.023438 336.605469 13.742188 336.636719 13.101563 L 358.261719 13.101563 L 358.261719 16.890625 C 357.390625 16.929688 356.269531 17.085938 354.898438 17.371094 C 353.558594 17.65625 352.578125 17.925781 351.957031 18.171875 C 350.898438 18.597656 350.183594 19.3125 349.808594 20.308594 C 349.433594 21.304688 349.246094 22.390625 349.246094 23.566406 L 349.246094 78.183594 C 349.246094 79.429688 349.433594 80.480469 349.808594 81.335938 C 350.183594 82.1875 350.898438 82.9375 351.957031 83.574219 C 352.515625 83.933594 353.511719 84.269531 354.945313 84.59375 C 356.375 84.875 357.511719 85.035156 358.355469 85.070313 "/>
<g clip-path="url(#clip2)" clip-rule="nonzero">
<path style="fill:none;stroke-width:16.91;stroke-linecap:butt;stroke-linejoin:miter;stroke:rgb(61.199951%,17.599487%,25.898743%);stroke-opacity:1;stroke-miterlimit:3.864;" d="M 3583.554688 309.267188 L 3290.664063 309.267188 L 3290.664063 347.196875 C 3301.25 347.548438 3314.84375 348.759375 3331.328125 350.907813 C 3348.164063 353.05625 3359.6875 356.064063 3365.898438 360.009375 C 3375.546875 366.767188 3382.539063 374.384375 3386.914063 382.939063 C 3391.5625 391.845313 3393.90625 402.860938 3393.90625 416.064063 L 3393.90625 967.079688 L 3386.914063 967.079688 L 3160.859375 321.532813 L 3137.5 321.532813 L 2922.148438 980.4 L 2916.09375 980.4 L 2916.09375 528.173438 C 2916.09375 484.384375 2918.4375 451.103125 2923.085938 428.329688 C 2928.085938 405.55625 2935.546875 389.189063 2945.507813 379.228125 C 2952.34375 371.767188 2966.523438 364.61875 2988.007813 357.860938 C 3009.492188 351.064063 3023.515625 347.548438 3030.039063 347.196875 L 3030.039063 309.267188 L 2762.421875 309.267188 L 2762.421875 347.196875 C 2776.445313 348.603125 2791.054688 351.259375 2806.328125 355.204688 C 2821.875 359.071875 2833.867188 364.970313 2842.304688 372.821875 C 2853.164063 382.74375 2860.664063 398.05625 2864.6875 418.720313 C 2868.75 439.384375 2870.78125 473.876563 2870.78125 522.314063 L 2870.78125 909.93125 C 2870.78125 932.353125 2868.4375 950.673438 2863.789063 964.892188 C 2859.101563 979.15 2852.382813 990.7125 2843.671875 999.61875 C 2834.023438 1009.228125 2822.1875 1016.3375 2808.203125 1020.985938 C 2794.179688 1025.595313 2780.3125 1028.251563 2766.601563 1028.99375 L 2766.601563 1066.884375 L 2992.695313 1066.884375 L 3182.304688 498.798438 L 3344.414063 973.99375 C 3350.3125 991.454688 3355.273438 1009.579688 3359.335938 1028.446875 C 3363.710938 1047.665625 3366.054688 1060.478125 3366.367188 1066.884375 L 3582.617188 1066.884375 L 3582.617188 1028.99375 C 3573.90625 1028.603125 3562.695313 1027.040625 3548.984375 1024.189063 C 3535.585938 1021.3375 3525.78125 1018.642188 3519.570313 1016.18125 C 3508.984375 1011.923438 3501.835938 1004.775 3498.085938 994.814063 C 3494.335938 984.853125 3492.460938 973.99375 3492.460938 962.235938 L 3492.460938 416.064063 C 3492.460938 403.603125 3494.335938 393.095313 3498.085938 384.540625 C 3501.835938 376.025 3508.984375 368.525 3519.570313 362.157813 C 3525.15625 358.564063 3535.117188 355.204688 3549.453125 351.9625 C 3563.75 349.15 3575.117188 347.548438 3583.554688 347.196875 Z M 3583.554688 309.267188 " transform="matrix(0.1,0,0,-0.1,0,119.79)"/>
</g>
<path style=" stroke:none;fill-rule:evenodd;fill:rgb(61.199951%,17.599487%,25.898743%);fill-opacity:1;" d="M 202.5 16.890625 C 201.625 16.929688 200.351563 17.140625 198.671875 17.53125 C 196.988281 17.925781 195.617188 18.511719 194.558594 19.292969 C 193.5 20.113281 192.769531 21.800781 192.363281 24.367188 C 191.960938 26.929688 191.757813 30.0625 191.757813 33.761719 L 191.757813 66.707031 C 191.757813 70.90625 190.992188 74.554688 189.46875 77.652344 C 187.941406 80.746094 185.933594 83.292969 183.441406 85.285156 C 180.980469 87.207031 178.382813 88.578125 175.644531 89.394531 C 172.933594 90.25 170.332031 90.679688 167.84375 90.679688 C 163.855469 90.679688 160.304688 90.070313 157.191406 88.863281 C 154.078125 87.6875 151.460938 86.085938 149.34375 84.058594 C 147.257813 82.027344 145.6875 79.714844 144.628906 77.117188 C 143.566406 74.484375 143.039063 71.742188 143.039063 68.894531 L 143.039063 24.097656 C 143.039063 22.855469 142.851563 21.820313 142.480469 21.003906 C 142.136719 20.148438 141.421875 19.363281 140.328125 18.652344 C 139.550781 18.15625 138.554688 17.765625 137.339844 17.480469 C 136.128906 17.160156 135.128906 16.964844 134.351563 16.890625 L 134.351563 13.101563 L 161.957031 13.101563 L 161.957031 16.890625 C 161.082031 16.929688 159.980469 17.085938 158.640625 17.371094 C 157.332031 17.65625 156.367188 17.925781 155.742188 18.171875 C 154.683594 18.597656 153.96875 19.3125 153.597656 20.308594 C 153.253906 21.304688 153.082031 22.390625 153.082031 23.566406 L 153.082031 65.425781 C 153.082031 67.453125 153.269531 69.589844 153.644531 71.832031 C 154.046875 74.039063 154.824219 76.101563 155.976563 78.023438 C 157.191406 79.984375 158.839844 81.585938 160.929688 82.828125 C 163.015625 84.074219 165.878906 84.699219 169.523438 84.699219 C 172.945313 84.699219 175.8125 84.074219 178.117188 82.828125 C 180.453125 81.585938 182.289063 79.945313 183.628906 77.917969 C 184.902344 75.996094 185.808594 73.984375 186.339844 71.882813 C 186.867188 69.785156 187.132813 67.667969 187.132813 65.53125 L 187.132813 34.457031 C 187.132813 30.507813 186.882813 27.285156 186.386719 24.792969 C 185.886719 22.265625 185.15625 20.609375 184.191406 19.828125 C 183.101563 18.9375 181.605469 18.246094 179.703125 17.746094 C 177.835938 17.246094 176.402344 16.964844 175.40625 16.890625 L 175.40625 13.101563 L 202.5 13.101563 "/>
<path style="fill:none;stroke-width:16.91;stroke-linecap:butt;stroke-linejoin:miter;stroke:rgb(61.199951%,17.599487%,25.898743%);stroke-opacity:1;stroke-miterlimit:3.864;" d="M 2025 1028.99375 C 2016.25 1028.603125 2003.515625 1026.49375 1986.71875 1022.5875 C 1969.882813 1018.642188 1956.171875 1012.782813 1945.585938 1004.970313 C 1935 996.767188 1927.695313 979.892188 1923.632813 954.228125 C 1919.609375 928.603125 1917.578125 897.275 1917.578125 860.282813 L 1917.578125 530.829688 C 1917.578125 488.8375 1909.921875 452.353125 1894.6875 421.376563 C 1879.414063 390.439063 1859.335938 364.970313 1834.414063 345.048438 C 1809.804688 325.829688 1783.828125 312.11875 1756.445313 303.954688 C 1729.335938 295.4 1703.320313 291.103125 1678.4375 291.103125 C 1638.554688 291.103125 1603.046875 297.196875 1571.914063 309.267188 C 1540.78125 321.025 1514.609375 337.040625 1493.4375 357.314063 C 1472.578125 377.626563 1456.875 400.751563 1446.289063 426.728125 C 1435.664063 453.05625 1430.390625 480.478125 1430.390625 508.954688 L 1430.390625 956.923438 C 1430.390625 969.345313 1428.515625 979.696875 1424.804688 987.860938 C 1421.367188 996.415625 1414.21875 1004.267188 1403.28125 1011.376563 C 1395.507813 1016.3375 1385.546875 1020.24375 1373.398438 1023.095313 C 1361.289063 1026.298438 1351.289063 1028.251563 1343.515625 1028.99375 L 1343.515625 1066.884375 L 1619.570313 1066.884375 L 1619.570313 1028.99375 C 1610.820313 1028.603125 1599.804688 1027.040625 1586.40625 1024.189063 C 1573.320313 1021.3375 1563.671875 1018.642188 1557.421875 1016.18125 C 1546.835938 1011.923438 1539.6875 1004.775 1535.976563 994.814063 C 1532.539063 984.853125 1530.820313 973.99375 1530.820313 962.235938 L 1530.820313 543.642188 C 1530.820313 523.36875 1532.695313 502.001563 1536.445313 479.579688 C 1540.46875 457.509375 1548.242188 436.884375 1559.765625 417.665625 C 1571.914063 398.05625 1588.398438 382.040625 1609.296875 369.61875 C 1630.15625 357.157813 1658.789063 350.907813 1695.234375 350.907813 C 1729.453125 350.907813 1758.125 357.157813 1781.171875 369.61875 C 1804.53125 382.040625 1822.890625 398.446875 1836.289063 418.720313 C 1849.023438 437.939063 1858.085938 458.05625 1863.398438 479.071875 C 1868.671875 500.048438 1871.328125 521.220313 1871.328125 542.5875 L 1871.328125 853.329688 C 1871.328125 892.821875 1868.828125 925.048438 1863.867188 949.970313 C 1858.867188 975.24375 1851.5625 991.80625 1841.914063 999.61875 C 1831.015625 1008.525 1816.054688 1015.439063 1797.03125 1020.439063 C 1778.359375 1025.439063 1764.023438 1028.251563 1754.0625 1028.99375 L 1754.0625 1066.884375 L 2025 1066.884375 Z M 2025 1028.99375 " transform="matrix(0.1,0,0,-0.1,0,119.79)"/>
<path style=" stroke:none;fill-rule:evenodd;fill:rgb(61.199951%,17.599487%,25.898743%);fill-opacity:1;" d="M 268.195313 33.65625 L 264.976563 33.65625 C 264.695313 32.375 264.179688 30.863281 263.433594 29.117188 C 262.714844 27.339844 261.90625 25.664063 261.003906 24.097656 C 260.070313 22.460938 259.042969 21.039063 257.921875 19.828125 C 256.832031 18.585938 255.773438 17.871094 254.742188 17.691406 C 253.777344 17.550781 252.566406 17.441406 251.101563 17.371094 C 249.636719 17.300781 248.28125 17.265625 247.039063 17.265625 L 244.328125 17.265625 L 244.328125 77.863281 C 244.328125 79.039063 244.546875 80.125 244.984375 81.121094 C 245.417969 82.082031 246.179688 82.828125 247.273438 83.363281 C 247.832031 83.613281 249 83.949219 250.777344 84.378906 C 252.578125 84.804688 253.980469 85.035156 254.980469 85.070313 L 254.980469 88.863281 L 223.683594 88.863281 L 223.683594 85.070313 C 224.554688 85.003906 225.878906 84.859375 227.652344 84.644531 C 229.460938 84.429688 230.703125 84.164063 231.390625 83.84375 C 232.417969 83.382813 233.164063 82.722656 233.632813 81.867188 C 234.128906 80.980469 234.378906 79.804688 234.382813 78.34375 L 234.382813 17.265625 L 231.671875 17.265625 C 230.703125 17.265625 229.507813 17.300781 228.074219 17.371094 C 226.640625 17.40625 225.273438 17.515625 223.964844 17.691406 C 222.9375 17.835938 221.863281 18.546875 220.738281 19.828125 C 219.652344 21.074219 218.640625 22.496094 217.703125 24.097656 C 216.773438 25.699219 215.945313 27.410156 215.230469 29.226563 C 214.515625 31.007813 214.015625 32.480469 213.734375 33.65625 L 210.464844 33.65625 L 210.464844 13.101563 L 268.195313 13.101563 "/>
<path style="fill:none;stroke-width:16.91;stroke-linecap:butt;stroke-linejoin:miter;stroke:rgb(61.199951%,17.599487%,25.898743%);stroke-opacity:1;stroke-miterlimit:3.864;" d="M 2681.953125 861.3375 L 2649.765625 861.3375 C 2646.953125 874.15 2641.796875 889.267188 2634.335938 906.728125 C 2627.148438 924.501563 2619.0625 941.259375 2610.039063 956.923438 C 2600.703125 973.290625 2590.429688 987.509375 2579.21875 999.61875 C 2568.320313 1012.040625 2557.734375 1019.189063 2547.421875 1020.985938 C 2537.773438 1022.392188 2525.664063 1023.485938 2511.015625 1024.189063 C 2496.367188 1024.892188 2482.8125 1025.24375 2470.390625 1025.24375 L 2443.28125 1025.24375 L 2443.28125 419.267188 C 2443.28125 407.509375 2445.46875 396.65 2449.84375 386.689063 C 2454.179688 377.079688 2461.796875 369.61875 2472.734375 364.267188 C 2478.320313 361.767188 2490 358.407813 2507.773438 354.110938 C 2525.78125 349.853125 2539.804688 347.548438 2549.804688 347.196875 L 2549.804688 309.267188 L 2236.835938 309.267188 L 2236.835938 347.196875 C 2245.546875 347.860938 2258.789063 349.30625 2276.523438 351.454688 C 2294.609375 353.603125 2307.03125 356.259375 2313.90625 359.4625 C 2324.179688 364.071875 2331.640625 370.673438 2336.328125 379.228125 C 2341.289063 388.095313 2343.789063 399.853125 2343.828125 414.4625 L 2343.828125 1025.24375 L 2316.71875 1025.24375 C 2307.03125 1025.24375 2295.078125 1024.892188 2280.742188 1024.189063 C 2266.40625 1023.8375 2252.734375 1022.74375 2239.648438 1020.985938 C 2229.375 1019.540625 2218.632813 1012.43125 2207.382813 999.61875 C 2196.523438 987.157813 2186.40625 972.939063 2177.03125 956.923438 C 2167.734375 940.907813 2159.453125 923.798438 2152.304688 905.634375 C 2145.15625 887.821875 2140.15625 873.095313 2137.34375 861.3375 L 2104.648438 861.3375 L 2104.648438 1066.884375 L 2681.953125 1066.884375 Z M 2681.953125 861.3375 " transform="matrix(0.1,0,0,-0.1,0,119.79)"/>
<g clip-path="url(#clip3)" clip-rule="nonzero">
<path style=" stroke:none;fill-rule:evenodd;fill:rgb(61.199951%,17.599487%,25.898743%);fill-opacity:1;" d="M 0 59.664063 C 0 26.808594 26.925781 -0.183594 60.03125 -0.00390625 C 91.953125 0.171875 119.882813 27.53125 119.882813 59.664063 C 119.882813 92.519531 91.953125 120.136719 59.855469 119.785156 C 27.570313 119.433594 0 92.519531 0 59.664063 "/>
</g>
<path style=" stroke:none;fill-rule:nonzero;fill:rgb(88.999939%,63.499451%,18.798828%);fill-opacity:1;" d="M 3.914063 59.214844 C 3.914063 57.542969 5.292969 56.191406 6.988281 56.191406 C 8.6875 56.191406 10.066406 57.542969 10.066406 59.214844 C 10.066406 60.882813 8.6875 62.234375 6.988281 62.234375 C 5.292969 62.234375 3.914063 60.882813 3.914063 59.214844 "/>
<path style=" stroke:none;fill-rule:nonzero;fill:rgb(88.999939%,63.499451%,18.798828%);fill-opacity:1;" d="M 110.003906 59.589844 C 110.003906 57.917969 111.378906 56.5625 113.078125 56.5625 C 114.777344 56.5625 116.152344 57.917969 116.152344 59.589844 C 116.152344 61.257813 114.777344 62.609375 113.078125 62.609375 C 111.378906 62.609375 110.003906 61.257813 110.003906 59.589844 "/>
<path style=" stroke:none;fill-rule:evenodd;fill:rgb(88.999939%,63.499451%,18.798828%);fill-opacity:1;" d="M 36.269531 22.179688 L 57.191406 22.179688 C 58.957031 22.179688 60.28125 23.453125 60.28125 25.152344 L 60.28125 39.839844 C 60.28125 39.839844 59.839844 38.566406 57.855469 38.566406 L 39.394531 38.566406 C 38.621094 38.566406 36.269531 37.292969 36.269531 36.019531 "/>
<path style=" stroke:none;fill-rule:evenodd;fill:rgb(88.999939%,63.499451%,18.798828%);fill-opacity:1;" d="M 84.992188 22.179688 L 64.066406 22.179688 C 62.300781 22.179688 60.980469 23.453125 60.980469 25.152344 L 60.980469 39.839844 C 60.980469 39.839844 61.421875 38.566406 63.40625 38.566406 L 81.867188 38.566406 C 82.640625 38.566406 84.992188 37.292969 84.992188 36.019531 "/>
<path style=" stroke:none;fill-rule:evenodd;fill:rgb(88.999939%,63.499451%,18.798828%);fill-opacity:1;" d="M 30.15625 69.714844 C 30.15625 53.617188 42.8125 40.46875 58.730469 39.644531 L 58.730469 47.757813 C 47.242188 48.609375 38.1875 58.152344 38.1875 69.804688 C 38.1875 82.011719 48.136719 91.910156 60.410156 91.910156 C 72.683594 91.910156 82.632813 82.011719 82.632813 69.804688 C 82.632813 58.21875 73.675781 48.714844 62.277344 47.769531 L 62.277344 39.667969 C 78.019531 40.675781 90.472656 53.742188 90.472656 69.714844 C 90.472656 86.339844 76.972656 99.816406 60.316406 99.816406 C 43.660156 99.816406 30.15625 86.339844 30.15625 69.714844 "/>
<path style=" stroke:none;fill-rule:evenodd;fill:rgb(88.999939%,63.499451%,18.798828%);fill-opacity:1;" d="M 41.921875 64.859375 C 41.921875 55.34375 49.304688 47.527344 58.730469 46.6875 L 58.730469 54.738281 C 53.648438 55.515625 49.765625 59.753906 49.765625 64.859375 C 49.765625 70.519531 54.53125 75.101563 60.410156 75.101563 C 66.289063 75.101563 71.054688 70.519531 71.054688 64.859375 C 71.054688 59.8125 67.265625 55.621094 62.277344 54.769531 L 62.277344 46.707031 C 71.609375 47.632813 78.898438 55.402344 78.898438 64.859375 C 78.898438 74.933594 70.617188 83.101563 60.410156 83.101563 C 50.199219 83.101563 41.921875 74.933594 41.921875 64.859375 "/>
<path style=" stroke:none;fill-rule:evenodd;fill:rgb(88.999939%,63.499451%,18.798828%);fill-opacity:1;" d="M 9.847656 65.382813 L 10.066406 66.761719 L 6.074219 67.390625 C 5.628906 67.460938 5.3125 67.566406 5.125 67.703125 C 4.785156 67.925781 4.660156 68.3125 4.746094 68.863281 C 4.832031 69.410156 5.070313 69.738281 5.460938 69.847656 C 5.683594 69.917969 6.019531 69.921875 6.464844 69.851563 L 10.457031 69.21875 L 10.671875 70.597656 L 6.683594 71.226563 C 5.992188 71.335938 5.4375 71.3125 5.019531 71.160156 C 4.25 70.871094 3.777344 70.167969 3.601563 69.046875 C 3.421875 67.921875 3.65625 67.101563 4.296875 66.589844 C 4.648438 66.3125 5.167969 66.121094 5.855469 66.015625 "/>
<path style=" stroke:none;fill-rule:evenodd;fill:rgb(88.999939%,63.499451%,18.798828%);fill-opacity:1;" d="M 10.878906 71.425781 L 11.277344 72.808594 L 7.585938 76.585938 L 11.996094 75.320313 L 12.351563 76.550781 L 6.03125 78.359375 L 5.65625 77.042969 L 9.402344 73.179688 L 4.914063 74.464844 L 4.5625 73.234375 "/>
<path style=" stroke:none;fill-rule:evenodd;fill:rgb(88.999939%,63.499451%,18.798828%);fill-opacity:1;" d="M 7.21875 80.964844 L 6.707031 79.699219 L 12.800781 77.238281 L 13.3125 78.503906 Z M 7.21875 80.964844 "/>
<path style=" stroke:none;fill-rule:evenodd;fill:rgb(88.999939%,63.499451%,18.798828%);fill-opacity:1;" d="M 15.394531 82.808594 L 16.042969 84.074219 L 9.167969 85.0625 L 8.578125 83.90625 L 13.429688 78.949219 L 14.09375 80.257813 L 10.296875 83.789063 "/>
<path style=" stroke:none;fill-rule:evenodd;fill:rgb(88.999939%,63.499451%,18.798828%);fill-opacity:1;" d="M 17.941406 89 L 15.996094 86.117188 L 14.84375 86.898438 L 16.628906 89.542969 L 15.679688 90.179688 L 13.894531 87.535156 L 12.492188 88.480469 L 14.527344 91.492188 L 13.546875 92.152344 L 10.765625 88.027344 L 16.214844 84.355469 L 18.90625 88.347656 "/>
<path style=" stroke:none;fill-rule:evenodd;fill:rgb(88.999939%,63.499451%,18.798828%);fill-opacity:1;" d="M 19.386719 90.851563 L 18.035156 91.984375 L 19.035156 93.175781 C 19.234375 93.410156 19.410156 93.566406 19.566406 93.640625 C 19.835938 93.769531 20.113281 93.714844 20.394531 93.476563 C 20.699219 93.222656 20.820313 92.949219 20.753906 92.65625 C 20.71875 92.492188 20.605469 92.300781 20.414063 92.070313 Z M 22.023438 92.476563 C 22.105469 92.734375 22.121094 92.996094 22.078125 93.257813 C 22.042969 93.472656 21.972656 93.679688 21.875 93.871094 C 21.773438 94.066406 21.621094 94.246094 21.421875 94.410156 C 21.1875 94.609375 20.898438 94.75 20.566406 94.820313 C 20.234375 94.894531 19.902344 94.832031 19.574219 94.636719 C 19.675781 94.945313 19.679688 95.21875 19.589844 95.460938 C 19.5 95.699219 19.277344 95.972656 18.925781 96.265625 L 18.589844 96.550781 C 18.359375 96.742188 18.210938 96.882813 18.144531 96.96875 C 18.035156 97.105469 17.992188 97.25 18.015625 97.402344 L 17.890625 97.507813 L 16.917969 96.351563 C 17.003906 96.226563 17.074219 96.128906 17.132813 96.054688 C 17.25 95.910156 17.382813 95.773438 17.527344 95.648438 L 17.988281 95.25 C 18.308594 94.976563 18.472656 94.738281 18.480469 94.53125 C 18.496094 94.332031 18.371094 94.074219 18.113281 93.769531 L 17.203125 92.683594 L 15.226563 94.335938 L 14.363281 93.308594 L 19.398438 89.09375 L 21.472656 91.558594 C 21.761719 91.914063 21.945313 92.222656 22.023438 92.476563 "/>
<path style=" stroke:none;fill-rule:evenodd;fill:rgb(88.999939%,63.499451%,18.798828%);fill-opacity:1;" d="M 21.019531 97.726563 C 20.847656 97.972656 20.753906 98.191406 20.742188 98.382813 C 20.71875 98.734375 20.90625 99.09375 21.300781 99.460938 C 21.539063 99.679688 21.757813 99.835938 21.953125 99.921875 C 22.328125 100.082031 22.640625 100.027344 22.894531 99.753906 C 23.039063 99.597656 23.085938 99.410156 23.027344 99.191406 C 22.96875 98.980469 22.820313 98.699219 22.582031 98.355469 L 22.179688 97.769531 C 21.785156 97.191406 21.554688 96.746094 21.488281 96.4375 C 21.371094 95.914063 21.53125 95.414063 21.972656 94.941406 C 22.371094 94.515625 22.863281 94.304688 23.441406 94.308594 C 24.019531 94.316406 24.613281 94.601563 25.21875 95.167969 C 25.726563 95.640625 26.03125 96.175781 26.136719 96.777344 C 26.246094 97.378906 26.070313 97.941406 25.613281 98.46875 L 24.648438 97.570313 C 24.898438 97.265625 24.964844 96.941406 24.84375 96.601563 C 24.761719 96.375 24.605469 96.15625 24.371094 95.9375 C 24.113281 95.699219 23.859375 95.558594 23.605469 95.519531 C 23.355469 95.476563 23.140625 95.550781 22.96875 95.738281 C 22.808594 95.910156 22.761719 96.109375 22.835938 96.335938 C 22.882813 96.480469 23.027344 96.742188 23.277344 97.117188 L 23.921875 98.089844 C 24.203125 98.511719 24.367188 98.882813 24.417969 99.199219 C 24.492188 99.695313 24.332031 100.15625 23.933594 100.582031 C 23.523438 101.019531 23.011719 101.226563 22.40625 101.207031 C 21.800781 101.183594 21.191406 100.886719 20.578125 100.3125 C 19.953125 99.730469 19.59375 99.132813 19.5 98.511719 C 19.410156 97.890625 19.597656 97.332031 20.0625 96.832031 "/>
<path style=" stroke:none;fill-rule:evenodd;fill:rgb(88.999939%,63.499451%,18.798828%);fill-opacity:1;" d="M 24.507813 103.617188 L 23.464844 102.742188 L 27.6875 97.714844 L 28.734375 98.589844 Z M 24.507813 103.617188 "/>
<path style=" stroke:none;fill-rule:evenodd;fill:rgb(88.999939%,63.499451%,18.798828%);fill-opacity:1;" d="M 33.386719 101.886719 L 32.71875 102.839844 L 31.105469 101.710938 L 28.007813 106.136719 L 26.875 105.34375 L 29.976563 100.921875 L 28.355469 99.785156 L 29.023438 98.835938 "/>
<path style=" stroke:none;fill-rule:evenodd;fill:rgb(88.999939%,63.499451%,18.798828%);fill-opacity:1;" d="M 31.589844 108.382813 L 30.417969 107.683594 L 33.804688 102.054688 L 34.972656 102.757813 Z M 31.589844 108.382813 "/>
<path style=" stroke:none;fill-rule:evenodd;fill:rgb(88.999939%,63.499451%,18.798828%);fill-opacity:1;" d="M 42.296875 106.410156 L 41.808594 107.460938 L 40.027344 106.632813 L 37.738281 111.527344 L 36.484375 110.945313 L 38.773438 106.050781 L 36.984375 105.214844 L 37.472656 104.160156 "/>
<path style=" stroke:none;fill-rule:evenodd;fill:rgb(88.999939%,63.499451%,18.798828%);fill-opacity:1;" d="M 46.933594 109.113281 L 43.625 108.039063 L 43.195313 109.363281 L 46.230469 110.351563 L 45.878906 111.433594 L 42.84375 110.449219 L 42.320313 112.054688 L 45.78125 113.175781 L 45.414063 114.300781 L 40.679688 112.761719 L 42.710938 106.519531 L 47.292969 108.007813 "/>
<path style=" stroke:none;fill-rule:evenodd;fill:rgb(88.999939%,63.499451%,18.798828%);fill-opacity:1;" d="M 48.070313 108.1875 L 49.394531 108.445313 L 48.878906 111.097656 L 51.886719 108.929688 L 53.628906 109.265625 L 50.46875 111.40625 L 52.507813 115.734375 L 50.777344 115.398438 L 49.332031 112.195313 L 48.5625 112.730469 L 48.140625 114.890625 L 46.816406 114.632813 "/>
<path style=" stroke:none;fill-rule:evenodd;fill:rgb(88.999939%,63.499451%,18.798828%);fill-opacity:1;" d="M 54.066406 109.289063 L 55.503906 109.390625 L 57.792969 114.144531 L 58.113281 109.570313 L 59.390625 109.660156 L 58.933594 116.210938 L 57.5625 116.113281 L 55.210938 111.273438 L 54.886719 115.925781 L 53.609375 115.835938 "/>
<path style=" stroke:none;fill-rule:evenodd;fill:rgb(88.999939%,63.499451%,18.798828%);fill-opacity:1;" d="M 64.664063 114.296875 C 64.949219 113.871094 65.058594 113.285156 64.992188 112.550781 C 64.929688 111.816406 64.71875 111.265625 64.363281 110.894531 C 64.011719 110.519531 63.566406 110.355469 63.023438 110.402344 C 62.480469 110.449219 62.066406 110.6875 61.78125 111.117188 C 61.492188 111.542969 61.382813 112.125 61.445313 112.859375 C 61.507813 113.597656 61.722656 114.152344 62.078125 114.523438 C 62.4375 114.894531 62.886719 115.058594 63.429688 115.007813 C 63.96875 114.960938 64.382813 114.726563 64.664063 114.296875 M 65.609375 115.214844 C 65.15625 115.769531 64.464844 116.085938 63.527344 116.167969 C 62.59375 116.246094 61.855469 116.058594 61.316406 115.589844 C 60.597656 115.023438 60.1875 114.15625 60.085938 112.980469 C 59.980469 111.78125 60.234375 110.855469 60.84375 110.195313 C 61.292969 109.644531 61.988281 109.328125 62.921875 109.246094 C 63.859375 109.164063 64.597656 109.355469 65.136719 109.820313 C 65.847656 110.363281 66.257813 111.234375 66.363281 112.429688 C 66.464844 113.605469 66.214844 114.535156 65.609375 115.214844 "/>
<path style=" stroke:none;fill-rule:evenodd;fill:rgb(88.999939%,63.499451%,18.798828%);fill-opacity:1;" d="M 66.746094 109.066406 L 68.097656 108.804688 L 69.125 114.089844 L 72.320313 113.46875 L 72.542969 114.625 L 68 115.507813 "/>
<path style=" stroke:none;fill-rule:evenodd;fill:rgb(88.999939%,63.499451%,18.798828%);fill-opacity:1;" d="M 77.316406 111.367188 C 77.488281 110.886719 77.457031 110.292969 77.214844 109.59375 C 76.972656 108.898438 76.636719 108.414063 76.203125 108.136719 C 75.769531 107.859375 75.296875 107.808594 74.78125 107.988281 C 74.265625 108.164063 73.921875 108.492188 73.746094 108.976563 C 73.570313 109.460938 73.605469 110.054688 73.84375 110.753906 C 74.085938 111.449219 74.421875 111.9375 74.859375 112.214844 C 75.296875 112.484375 75.773438 112.535156 76.289063 112.355469 C 76.804688 112.179688 77.144531 111.851563 77.316406 111.367188 M 78.457031 112.03125 C 78.152344 112.675781 77.554688 113.148438 76.667969 113.457031 C 75.777344 113.761719 75.015625 113.753906 74.382813 113.433594 C 73.546875 113.058594 72.941406 112.3125 72.554688 111.195313 C 72.164063 110.058594 72.183594 109.097656 72.617188 108.3125 C 72.917969 107.667969 73.515625 107.191406 74.402344 106.886719 C 75.289063 106.582031 76.054688 106.589844 76.6875 106.910156 C 77.511719 107.265625 78.121094 108.011719 78.511719 109.148438 C 78.894531 110.265625 78.878906 111.226563 78.457031 112.03125 "/>
<path style=" stroke:none;fill-rule:evenodd;fill:rgb(88.999939%,63.499451%,18.798828%);fill-opacity:1;" d="M 82.871094 105.746094 C 82.582031 105.390625 82.214844 105.21875 81.773438 105.234375 C 81.527344 105.246094 81.28125 105.3125 81.03125 105.433594 C 80.554688 105.664063 80.253906 106.035156 80.121094 106.546875 C 79.992188 107.050781 80.101563 107.664063 80.453125 108.386719 C 80.808594 109.109375 81.226563 109.546875 81.703125 109.683594 C 82.179688 109.824219 82.632813 109.792969 83.054688 109.585938 C 83.46875 109.382813 83.75 109.101563 83.898438 108.734375 C 84.046875 108.363281 84.054688 107.972656 83.929688 107.554688 L 82.5625 108.222656 L 82.082031 107.234375 L 84.539063 106.039063 L 86.085938 109.203125 L 85.269531 109.601563 L 84.785156 108.925781 C 84.683594 109.320313 84.566406 109.621094 84.433594 109.832031 C 84.207031 110.1875 83.855469 110.484375 83.378906 110.714844 C 82.59375 111.097656 81.820313 111.140625 81.058594 110.84375 C 80.273438 110.550781 79.648438 109.933594 79.1875 108.988281 C 78.71875 108.03125 78.609375 107.136719 78.851563 106.304688 C 79.097656 105.472656 79.652344 104.847656 80.519531 104.425781 C 81.269531 104.058594 81.964844 103.957031 82.605469 104.117188 C 83.246094 104.273438 83.742188 104.617188 84.085938 105.15625 "/>
<path style=" stroke:none;fill-rule:evenodd;fill:rgb(88.999939%,63.499451%,18.798828%);fill-opacity:1;" d="M 88.46875 107.640625 L 87.296875 108.34375 L 83.910156 102.714844 L 85.082031 102.015625 Z M 88.46875 107.640625 "/>
<path style=" stroke:none;fill-rule:evenodd;fill:rgb(88.999939%,63.499451%,18.798828%);fill-opacity:1;" d="M 91.285156 97.5 L 92.816406 96.261719 L 96.957031 101.363281 L 95.960938 102.164063 L 93.160156 98.714844 C 93.082031 98.617188 92.972656 98.476563 92.828125 98.296875 C 92.6875 98.113281 92.574219 97.976563 92.496094 97.878906 L 95 102.941406 L 93.964844 103.78125 L 89.535156 100.273438 C 89.609375 100.371094 89.726563 100.511719 89.875 100.6875 C 90.019531 100.863281 90.132813 101 90.214844 101.101563 L 93.011719 104.550781 L 92.015625 105.355469 L 87.882813 100.253906 L 89.433594 98.996094 L 93.613281 102.257813 "/>
<path style=" stroke:none;fill-rule:evenodd;fill:rgb(88.999939%,63.499451%,18.798828%);fill-opacity:1;" d="M 97.578125 97.183594 L 98.734375 95.984375 L 96.304688 94.78125 Z M 94.691406 94.289063 L 95.769531 93.171875 L 102.117188 96.0625 L 101.082031 97.128906 L 99.816406 96.496094 L 98.132813 98.234375 L 98.789063 99.5 L 97.792969 100.53125 "/>
<path style=" stroke:none;fill-rule:evenodd;fill:rgb(88.999939%,63.499451%,18.798828%);fill-opacity:1;" d="M 97.636719 91.167969 L 98.484375 90.089844 L 102.734375 93.402344 L 104.734375 90.839844 L 105.667969 91.566406 L 102.816406 95.210938 "/>
<path style=" stroke:none;fill-rule:evenodd;fill:rgb(88.999939%,63.499451%,18.798828%);fill-opacity:1;" d="M 105.175781 87.714844 L 106.058594 86.300781 L 103.429688 85.628906 Z M 101.753906 85.476563 L 102.574219 84.164063 L 109.382813 85.671875 L 108.59375 86.933594 L 107.222656 86.574219 L 105.9375 88.628906 L 106.84375 89.726563 L 106.082031 90.941406 "/>
<path style=" stroke:none;fill-rule:evenodd;fill:rgb(88.999939%,63.499451%,18.798828%);fill-opacity:1;" d="M 105.191406 79.175781 L 105.851563 77.769531 L 108.636719 81.488281 L 110.878906 82.53125 L 110.296875 83.773438 L 108.058594 82.730469 L 103.378906 83.058594 L 104.0625 81.59375 L 107.234375 81.566406 "/>
<path style=" stroke:none;fill-rule:evenodd;fill:rgb(88.999939%,63.499451%,18.798828%);fill-opacity:1;" d="M 110.644531 77.945313 C 110.941406 78.003906 111.179688 78 111.359375 77.929688 C 111.6875 77.808594 111.941406 77.492188 112.117188 76.980469 C 112.222656 76.675781 112.273438 76.414063 112.269531 76.199219 C 112.265625 75.792969 112.089844 75.53125 111.738281 75.410156 C 111.53125 75.339844 111.34375 75.375 111.167969 75.515625 C 110.996094 75.65625 110.804688 75.90625 110.585938 76.261719 L 110.210938 76.867188 C 109.84375 77.464844 109.527344 77.855469 109.273438 78.042969 C 108.84375 78.363281 108.320313 78.417969 107.714844 78.207031 C 107.15625 78.015625 106.765625 77.652344 106.535156 77.125 C 106.304688 76.59375 106.324219 75.9375 106.597656 75.152344 C 106.820313 74.5 107.1875 74.003906 107.695313 73.660156 C 108.199219 73.316406 108.785156 73.246094 109.453125 73.449219 L 109.027344 74.699219 C 108.644531 74.59375 108.320313 74.664063 108.058594 74.910156 C 107.886719 75.078125 107.746094 75.3125 107.644531 75.613281 C 107.527344 75.949219 107.503906 76.238281 107.570313 76.480469 C 107.636719 76.730469 107.789063 76.890625 108.03125 76.976563 C 108.253906 77.054688 108.453125 77.011719 108.632813 76.851563 C 108.75 76.75 108.929688 76.511719 109.167969 76.132813 L 109.792969 75.152344 C 110.066406 74.722656 110.339844 74.417969 110.609375 74.242188 C 111.03125 73.976563 111.519531 73.9375 112.070313 74.125 C 112.640625 74.320313 113.035156 74.699219 113.265625 75.265625 C 113.488281 75.824219 113.464844 76.503906 113.191406 77.292969 C 112.910156 78.101563 112.507813 78.675781 111.980469 79.011719 C 111.449219 79.347656 110.859375 79.402344 110.214844 79.183594 "/>
<path style=" stroke:none;fill-rule:evenodd;fill:rgb(88.999939%,63.499451%,18.798828%);fill-opacity:1;" d="M 114.484375 72.242188 L 114.175781 73.570313 L 107.773438 72.09375 L 108.078125 70.765625 Z M 114.484375 72.242188 "/>
<path style=" stroke:none;fill-rule:evenodd;fill:rgb(88.999939%,63.499451%,18.798828%);fill-opacity:1;" d="M 112.628906 68.632813 L 112.832031 66.976563 L 110.164063 67.476563 Z M 108.582031 68.046875 L 108.769531 66.511719 L 115.578125 65.003906 L 115.394531 66.476563 L 114.003906 66.734375 L 113.707031 69.136719 L 114.992188 69.75 L 114.820313 71.175781 "/>
<path style=" stroke:none;fill-rule:evenodd;fill:rgb(88.999939%,63.499451%,18.798828%);fill-opacity:1;" d="M 3.347656 52.042969 L 3.601563 50.714844 L 6.246094 51.230469 L 4.085938 48.222656 L 4.421875 46.480469 L 6.554688 49.640625 L 10.867188 47.597656 L 10.53125 49.335938 L 7.34375 50.777344 L 7.875 51.550781 L 10.023438 51.972656 L 9.765625 53.296875 "/>
<path style=" stroke:none;fill-rule:evenodd;fill:rgb(88.999939%,63.499451%,18.798828%);fill-opacity:1;" d="M 7.460938 40.898438 L 6.335938 44.1875 L 7.648438 44.644531 L 8.683594 41.625 L 9.757813 41.996094 L 8.722656 45.015625 L 10.3125 45.566406 L 11.492188 42.125 L 12.601563 42.511719 L 10.988281 47.222656 L 4.804688 45.082031 L 6.367188 40.519531 "/>
<path style=" stroke:none;fill-rule:evenodd;fill:rgb(88.999939%,63.499451%,18.798828%);fill-opacity:1;" d="M 8.503906 38.242188 L 10.097656 38.988281 L 10.753906 37.578125 C 10.882813 37.300781 10.945313 37.074219 10.949219 36.902344 C 10.949219 36.601563 10.785156 36.371094 10.453125 36.21875 C 10.09375 36.046875 9.796875 36.054688 9.5625 36.238281 C 9.429688 36.339844 9.300781 36.523438 9.175781 36.796875 Z M 8.867188 35.164063 C 9.066406 34.980469 9.292969 34.851563 9.546875 34.78125 C 9.757813 34.722656 9.96875 34.699219 10.1875 34.710938 C 10.402344 34.71875 10.628906 34.777344 10.863281 34.890625 C 11.144531 35.019531 11.390625 35.222656 11.597656 35.492188 C 11.800781 35.761719 11.882813 36.089844 11.84375 36.46875 C 12.082031 36.246094 12.328125 36.125 12.582031 36.109375 C 12.839844 36.085938 13.171875 36.171875 13.589844 36.367188 L 13.988281 36.554688 C 14.257813 36.683594 14.445313 36.757813 14.554688 36.78125 C 14.722656 36.820313 14.867188 36.796875 14.996094 36.710938 L 15.144531 36.78125 L 14.507813 38.152344 C 14.359375 38.128906 14.242188 38.105469 14.152344 38.085938 C 13.972656 38.039063 13.792969 37.976563 13.617188 37.898438 L 13.0625 37.648438 C 12.683594 37.476563 12.398438 37.429688 12.210938 37.503906 C 12.023438 37.574219 11.84375 37.796875 11.675781 38.164063 L 11.078125 39.449219 L 13.402344 40.539063 L 12.839844 41.757813 L 6.910156 38.976563 L 8.265625 36.054688 C 8.46875 35.640625 8.667969 35.34375 8.867188 35.164063 "/>
<path style=" stroke:none;fill-rule:evenodd;fill:rgb(88.999939%,63.499451%,18.798828%);fill-opacity:1;" d="M 14.371094 33.328125 L 15.277344 31.929688 L 12.671875 31.207031 Z M 11.007813 31.027344 L 11.847656 29.726563 L 18.59375 31.355469 L 17.785156 32.605469 L 16.429688 32.222656 L 15.117188 34.257813 L 15.996094 35.375 L 15.21875 36.578125 "/>
<path style=" stroke:none;fill-rule:evenodd;fill:rgb(88.999939%,63.499451%,18.798828%);fill-opacity:1;" d="M 13.804688 26.824219 L 14.707031 25.703125 L 19.894531 26.558594 L 16.34375 23.667969 L 17.148438 22.671875 L 22.230469 26.8125 L 21.367188 27.878906 L 16.078125 27.027344 L 19.6875 29.96875 L 18.886719 30.964844 "/>
<path style=" stroke:none;fill-rule:evenodd;fill:rgb(88.999939%,63.499451%,18.798828%);fill-opacity:1;" d="M 22.507813 23.167969 L 23.71875 22.027344 L 21.367188 20.695313 Z M 19.792969 20.117188 L 20.921875 19.058594 L 27.078125 22.277344 L 25.992188 23.296875 L 24.769531 22.597656 L 23.007813 24.246094 L 23.589844 25.546875 L 22.546875 26.527344 "/>
<path style=" stroke:none;fill-rule:evenodd;fill:rgb(88.999939%,63.499451%,18.798828%);fill-opacity:1;" d="M 29.277344 12.5625 L 29.921875 13.53125 L 28.300781 14.628906 L 31.3125 19.117188 L 30.171875 19.890625 L 27.160156 15.402344 L 25.53125 16.507813 L 24.882813 15.542969 "/>
<path style=" stroke:none;fill-rule:evenodd;fill:rgb(88.999939%,63.499451%,18.798828%);fill-opacity:1;" d="M 30.332031 11.871094 L 31.554688 11.214844 L 33.441406 14.785156 C 33.652344 15.183594 33.855469 15.449219 34.046875 15.585938 C 34.363281 15.832031 34.769531 15.824219 35.261719 15.5625 C 35.75 15.300781 35.980469 14.96875 35.953125 14.5625 C 35.953125 14.328125 35.84375 14.011719 35.632813 13.613281 L 33.746094 10.042969 L 34.972656 9.386719 L 36.859375 12.957031 C 37.1875 13.574219 37.34375 14.105469 37.335938 14.550781 C 37.3125 15.375 36.804688 16.050781 35.800781 16.585938 C 34.800781 17.121094 33.957031 17.167969 33.265625 16.730469 C 32.894531 16.488281 32.542969 16.058594 32.21875 15.441406 "/>
<path style=" stroke:none;fill-rule:evenodd;fill:rgb(88.999939%,63.499451%,18.798828%);fill-opacity:1;" d="M 38.929688 14.773438 L 36.480469 8.679688 L 37.734375 8.167969 L 38.667969 10.492188 L 41.035156 9.53125 L 40.105469 7.203125 L 41.363281 6.691406 L 43.8125 12.789063 L 42.554688 13.304688 L 41.460938 10.582031 L 39.089844 11.542969 L 40.183594 14.265625 "/>
<path style=" stroke:none;fill-rule:evenodd;fill:rgb(88.999939%,63.499451%,18.798828%);fill-opacity:1;" d="M 45.773438 9.757813 L 47.382813 9.355469 L 45.96875 7.042969 Z M 44.871094 5.769531 L 46.367188 5.394531 L 50.199219 11.210938 L 48.761719 11.570313 L 48.027344 10.363281 L 45.691406 10.949219 L 45.578125 12.371094 L 44.191406 12.71875 "/>
<path style=" stroke:none;fill-rule:evenodd;fill:rgb(88.999939%,63.499451%,18.798828%);fill-opacity:1;" d="M 49.859375 4.617188 L 51.28125 4.441406 L 54.421875 8.679688 L 53.867188 4.121094 L 55.128906 3.964844 L 55.925781 10.492188 L 54.570313 10.660156 L 51.355469 6.351563 L 51.917969 10.988281 L 50.65625 11.144531 "/>
<path style=" stroke:none;fill-rule:evenodd;fill:rgb(88.999939%,63.499451%,18.798828%);fill-opacity:1;" d="M 59.628906 3.796875 L 61.011719 3.894531 L 60.730469 7.925781 C 60.699219 8.378906 60.730469 8.710938 60.820313 8.925781 C 60.960938 9.304688 61.308594 9.515625 61.863281 9.554688 C 62.414063 9.59375 62.785156 9.433594 62.976563 9.078125 C 63.097656 8.878906 63.171875 8.550781 63.207031 8.101563 L 63.484375 4.066406 L 64.871094 4.164063 L 64.589844 8.199219 C 64.542969 8.894531 64.394531 9.433594 64.152344 9.804688 C 63.703125 10.488281 62.914063 10.789063 61.78125 10.714844 C 60.652344 10.632813 59.910156 10.222656 59.554688 9.480469 C 59.367188 9.078125 59.296875 8.527344 59.34375 7.828125 "/>
<path style=" stroke:none;fill-rule:evenodd;fill:rgb(88.999939%,63.499451%,18.798828%);fill-opacity:1;" d="M 66.597656 4.34375 L 68.007813 4.617188 L 69.691406 9.625 L 70.5625 5.117188 L 71.8125 5.359375 L 70.566406 11.816406 L 69.222656 11.554688 L 67.488281 6.457031 L 66.601563 11.042969 L 65.351563 10.800781 "/>
<path style=" stroke:none;fill-rule:evenodd;fill:rgb(88.999939%,63.499451%,18.798828%);fill-opacity:1;" d="M 78 7.324219 L 77.640625 8.433594 L 75.78125 7.824219 L 74.117188 12.972656 L 72.808594 12.542969 L 74.472656 7.394531 L 72.605469 6.785156 L 72.960938 5.679688 "/>
<path style=" stroke:none;fill-rule:evenodd;fill:rgb(88.999939%,63.499451%,18.798828%);fill-opacity:1;" d="M 79.144531 7.722656 L 80.398438 8.3125 L 78.703125 11.976563 C 78.511719 12.386719 78.421875 12.707031 78.429688 12.941406 C 78.425781 13.347656 78.675781 13.667969 79.179688 13.902344 C 79.679688 14.140625 80.082031 14.125 80.386719 13.859375 C 80.574219 13.71875 80.757813 13.441406 80.949219 13.03125 L 82.648438 9.367188 L 83.90625 9.957031 L 82.210938 13.621094 C 81.914063 14.253906 81.589844 14.703125 81.230469 14.964844 C 80.5625 15.441406 79.71875 15.4375 78.691406 14.953125 C 77.664063 14.472656 77.117188 13.824219 77.050781 13.003906 C 77.019531 12.558594 77.148438 12.019531 77.441406 11.386719 "/>
<path style=" stroke:none;fill-rule:evenodd;fill:rgb(88.999939%,63.499451%,18.798828%);fill-opacity:1;" d="M 85.421875 10.757813 L 86.578125 11.453125 L 85.191406 13.773438 L 88.738281 12.761719 L 90.253906 13.675781 L 86.570313 14.609375 L 87.003906 19.386719 L 85.496094 18.476563 L 85.238281 14.964844 L 84.335938 15.207031 L 83.210938 17.09375 L 82.054688 16.394531 "/>
<path style=" stroke:none;fill-rule:evenodd;fill:rgb(88.999939%,63.499451%,18.798828%);fill-opacity:1;" d="M 96.792969 19.007813 L 98.277344 20.304688 L 93.984375 25.269531 L 93.023438 24.429688 L 95.925781 21.070313 C 96.011719 20.976563 96.128906 20.839844 96.277344 20.671875 C 96.433594 20.496094 96.546875 20.363281 96.632813 20.269531 L 92.097656 23.617188 L 91.09375 22.742188 L 93.769531 17.765625 C 93.6875 17.859375 93.570313 17.996094 93.421875 18.175781 C 93.273438 18.347656 93.160156 18.484375 93.078125 18.582031 L 90.171875 21.9375 L 89.214844 21.097656 L 93.503906 16.132813 L 95.003906 17.445313 L 92.527344 22.132813 "/>
<path style=" stroke:none;fill-rule:evenodd;fill:rgb(88.999939%,63.499451%,18.798828%);fill-opacity:1;" d="M 97.582031 25.628906 L 98.667969 26.886719 L 100.074219 24.566406 Z M 100.707031 23.007813 L 101.71875 24.179688 L 98.304688 30.25 L 97.332031 29.128906 L 98.070313 27.917969 L 96.488281 26.089844 L 95.175781 26.632813 L 94.238281 25.550781 "/>
<path style=" stroke:none;fill-rule:evenodd;fill:rgb(88.999939%,63.499451%,18.798828%);fill-opacity:1;" d="M 103.976563 26.882813 L 104.800781 28.066406 L 102.554688 32.84375 L 106.292969 30.210938 L 107.023438 31.261719 L 101.664063 35.03125 L 100.882813 33.90625 L 103.15625 29.023438 L 99.351563 31.703125 L 98.621094 30.65625 "/>
<path style=" stroke:none;fill-rule:evenodd;fill:rgb(88.999939%,63.499451%,18.798828%);fill-opacity:1;" d="M 107.835938 32.671875 L 108.507813 33.894531 L 104.992188 35.851563 C 104.597656 36.074219 104.335938 36.28125 104.207031 36.472656 C 103.96875 36.800781 103.980469 37.203125 104.25 37.695313 C 104.519531 38.183594 104.855469 38.40625 105.253906 38.375 C 105.488281 38.367188 105.800781 38.253906 106.195313 38.035156 L 109.710938 36.074219 L 110.382813 37.296875 L 106.867188 39.257813 C 106.257813 39.59375 105.734375 39.765625 105.289063 39.761719 C 104.472656 39.757813 103.789063 39.253906 103.242188 38.257813 C 102.691406 37.261719 102.632813 36.410156 103.054688 35.710938 C 103.289063 35.328125 103.710938 34.96875 104.316406 34.632813 "/>
<path style=" stroke:none;fill-rule:evenodd;fill:rgb(88.999939%,63.499451%,18.798828%);fill-opacity:1;" d="M 107.253906 41.542969 C 106.992188 41.691406 106.816406 41.851563 106.726563 42.019531 C 106.558594 42.328125 106.578125 42.734375 106.777344 43.234375 C 106.898438 43.535156 107.027344 43.769531 107.171875 43.925781 C 107.441406 44.230469 107.746094 44.316406 108.089844 44.175781 C 108.289063 44.09375 108.40625 43.941406 108.445313 43.722656 C 108.484375 43.503906 108.46875 43.1875 108.398438 42.773438 L 108.28125 42.070313 C 108.167969 41.378906 108.148438 40.875 108.21875 40.566406 C 108.332031 40.042969 108.6875 39.65625 109.28125 39.417969 C 109.824219 39.195313 110.355469 39.210938 110.875 39.464844 C 111.394531 39.714844 111.808594 40.222656 112.117188 40.992188 C 112.375 41.636719 112.425781 42.253906 112.265625 42.84375 C 112.113281 43.4375 111.71875 43.875 111.082031 44.15625 L 110.589844 42.933594 C 110.945313 42.761719 111.140625 42.496094 111.175781 42.136719 C 111.195313 41.894531 111.148438 41.632813 111.027344 41.335938 C 110.898438 41.007813 110.726563 40.769531 110.515625 40.628906 C 110.304688 40.484375 110.082031 40.464844 109.847656 40.558594 C 109.628906 40.648438 109.507813 40.808594 109.476563 41.046875 C 109.457031 41.199219 109.480469 41.496094 109.546875 41.941406 L 109.71875 43.09375 C 109.792969 43.601563 109.785156 44.007813 109.695313 44.316406 C 109.558594 44.796875 109.21875 45.148438 108.675781 45.367188 C 108.121094 45.59375 107.574219 45.5625 107.035156 45.285156 C 106.503906 45.011719 106.078125 44.480469 105.765625 43.703125 C 105.445313 42.910156 105.375 42.210938 105.550781 41.609375 C 105.730469 41.007813 106.136719 40.578125 106.765625 40.324219 "/>
<path style=" stroke:none;fill-rule:evenodd;fill:rgb(88.999939%,63.499451%,18.798828%);fill-opacity:1;" d="M 107.449219 47.976563 L 107.054688 46.667969 L 113.304688 44.746094 L 113.703125 46.050781 Z M 107.449219 47.976563 "/>
<path style=" stroke:none;fill-rule:evenodd;fill:rgb(88.999939%,63.499451%,18.798828%);fill-opacity:1;" d="M 110.550781 50.160156 L 110.921875 51.785156 L 113.246094 50.402344 Z M 114.53125 49.324219 L 114.878906 50.835938 L 109.027344 54.585938 L 108.695313 53.132813 L 109.910156 52.414063 L 109.367188 50.054688 L 107.957031 49.914063 L 107.636719 48.515625 "/>
</g>
</svg>
